<svg xmlns="http://www.w3.org/2000/svg" viewBox="0 0 432 432"><defs><radialGradient id="g"><stop offset="0" stop-color="#FFF6C8"/><stop offset=".55" stop-color="#FFD84D"/><stop offset="1" stop-color="#F5A524"/></radialGradient></defs><g transform="translate(89 55) scale(.248)"><path d="M512 188 C552 188 568 309 603 357 C638 405 700 432 808 454 C848 462 848 498 808 506 C700 528 638 555 603 603 C568 651 552 836 512 836 C472 836 456 651 421 603 C386 555 324 528 216 506 C176 498 176 462 216 454 C324 432 386 405 421 357 C456 309 472 188 512 188 Z" fill="url(#g)"/></g></svg>