<svg xmlns="http://www.w3.org/2000/svg" width="2560" height="1440" viewBox="0 0 2560 1440"><defs><radialGradient id="g"><stop stop-color="#FFF6C8"/><stop offset=".55" stop-color="#FFD84D"/><stop offset="1" stop-color="#F5A524"/></radialGradient><filter id="gl"><feGaussianBlur stdDeviation="18"/></filter></defs><rect width="2560" height="1440" fill="#000F3B"/><g transform="translate(204.8 259.2) scale(0.6545454545454545)"><path d="M512 188 C552 188 568 309 603 357 C638 405 700 432 808 454 C848 462 848 498 808 506 C700 528 638 555 603 603 C568 651 552 836 512 836 C472 836 456 651 421 603 C386 555 324 528 216 506 C176 498 176 462 216 454 C324 432 386 405 421 357 C456 309 472 188 512 188 Z" fill="url(#g)" opacity=".45" filter="url(#gl)"/><path d="M512 188 C552 188 568 309 603 357 C638 405 700 432 808 454 C848 462 848 498 808 506 C700 528 638 555 603 603 C568 651 552 836 512 836 C472 836 456 651 421 603 C386 555 324 528 216 506 C176 498 176 462 216 454 C324 432 386 405 421 357 C456 309 472 188 512 188 Z" fill="url(#g)"/></g><text x="768.0" y="662.4" fill="#FBF5E6" font-family="Comfortaa, sans-serif" font-size="230.4" font-weight="700">Centelhar</text><text x="768.0" y="849.5999999999999" fill="#DCD5C9" font-family="Arial, sans-serif" font-size="74.88">Audiolivros • Conhecimento que ilumina</text><rect x="507" y="508" width="1546" height="423" fill="none" stroke="#FFD84D" stroke-dasharray="14 12" opacity=".45"/></svg>